<?xml version="1.0" standalone="no"?>
<!DOCTYPE svg PUBLIC "-//W3C//DTD SVG 20010904//EN"
 "http://www.w3.org/TR/2001/REC-SVG-20010904/DTD/svg10.dtd">
<svg version="1.0" xmlns="http://www.w3.org/2000/svg"
 width="920.000000pt" height="512.000000pt" viewBox="0 0 920.000000 512.000000"
 preserveAspectRatio="xMidYMid meet">

<g transform="translate(0.000000,512.000000) scale(0.100000,-0.100000)"
fill="#000000" stroke="none">
<path d="M4390 5095 c-366 -50 -663 -197 -921 -454 -293 -293 -439 -640 -439
-1043 0 -148 11 -231 47 -373 42 -161 69 -216 270 -536 105 -167 289 -461 410
-654 121 -192 361 -575 533 -850 172 -275 319 -508 325 -518 12 -16 30 10 162
230 83 136 340 563 573 948 787 1302 721 1184 774 1382 37 138 49 265 43 426
-8 221 -50 392 -143 583 -142 291 -398 550 -688 696 -296 149 -629 206 -946
163z m325 -599 c231 -18 496 -165 651 -359 82 -103 166 -271 195 -392 32 -128
32 -334 1 -458 -99 -396 -403 -683 -801 -752 -497 -87 -991 236 -1117 731 -78
307 -10 618 191 871 118 150 304 274 491 328 85 25 226 43 289 39 17 -2 62 -5
100 -8z"/>
<path d="M4465 4144 c-230 -52 -417 -232 -475 -460 -54 -209 2 -431 146 -584
83 -88 156 -136 264 -174 75 -26 98 -30 200 -30 99 0 126 4 193 27 439 153
581 691 271 1026 -81 88 -156 137 -262 174 -106 36 -233 44 -337 21z"/>
<path d="M3650 1583 c-497 -113 -812 -287 -921 -508 -44 -91 -52 -210 -20
-307 114 -344 703 -637 1476 -735 195 -24 625 -24 820 0 777 99 1371 396 1479
742 29 90 19 210 -23 299 -97 202 -373 367 -796 476 -221 57 -196 68 -196 -84
l0 -129 128 -32 c312 -80 518 -181 597 -293 41 -58 48 -140 16 -201 -113 -222
-554 -406 -1140 -478 -206 -25 -744 -25 -950 0 -767 94 -1270 383 -1139 654
59 123 316 252 652 327 54 12 98 25 97 29 0 4 0 63 0 132 0 69 -3 125 -7 124
-5 0 -37 -7 -73 -16z"/>
</g>
</svg>
